<svg xmlns="http://www.w3.org/2000/svg" viewBox="0 0 200 160" width="200" height="160">
  <!-- axes -->
  <line x1="20" y1="140" x2="185" y2="140" stroke="#888" stroke-width="1"/>
  <line x1="20" y1="140" x2="20" y2="10" stroke="#888" stroke-width="1"/>
  <polygon points="185,140 179,137 179,143" fill="#888"/>
  <polygon points="20,10 17,16 23,16" fill="#888"/>
  <text x="188" y="144" font-size="11" fill="#555" font-family="serif" font-style="italic">x&#x2081;</text>
  <text x="8" y="10" font-size="11" fill="#555" font-family="serif" font-style="italic">x&#x2082;</text>
  <!-- box: [l1,u1] x [l2,u2] -->
  <rect x="50" y="30" width="110" height="80" fill="#e8f0fe" stroke="#1a73e8" stroke-width="1.5"/>
  <!-- tick marks and labels -->
  <line x1="50" y1="140" x2="50" y2="136" stroke="#888" stroke-width="1"/>
  <line x1="160" y1="140" x2="160" y2="136" stroke="#888" stroke-width="1"/>
  <line x1="20" y1="110" x2="24" y2="110" stroke="#888" stroke-width="1"/>
  <line x1="20" y1="30" x2="24" y2="30" stroke="#888" stroke-width="1"/>
  <text x="45" y="152" font-size="9" fill="#333" font-family="serif" font-style="italic">l&#x2081;</text>
  <text x="155" y="152" font-size="9" fill="#333" font-family="serif" font-style="italic">u&#x2081;</text>
  <text x="3" y="114" font-size="9" fill="#333" font-family="serif" font-style="italic">l&#x2082;</text>
  <text x="3" y="34" font-size="9" fill="#333" font-family="serif" font-style="italic">u&#x2082;</text>
  <!-- corner dots -->
  <circle cx="50" cy="110" r="2.5" fill="#1a73e8"/>
  <circle cx="160" cy="110" r="2.5" fill="#1a73e8"/>
  <circle cx="50" cy="30" r="2.5" fill="#1a73e8"/>
  <circle cx="160" cy="30" r="2.5" fill="#1a73e8"/>
</svg>
